<?xml version="1.0" standalone="no"?><!DOCTYPE svg PUBLIC "-//W3C//DTD SVG 1.1//EN" "http://www.w3.org/Graphics/SVG/1.1/DTD/svg11.dtd"><svg xmlns:xlink="http://www.w3.org/1999/xlink" xmlns="http://www.w3.org/2000/svg" version="1.1" width="200" height="200" viewBox="0 0 200 200"><defs><style type="text/css"><![CDATA[
@font-face {
  font-family: "ifont";
  src: url("//at.alicdn.com/t/font_1442373896_4754455.eot?#iefix") format("embedded-opentype"), url("//at.alicdn.com/t/font_1442373896_4754455.woff") format("woff"), url("//at.alicdn.com/t/font_1442373896_4754455.ttf") format("truetype"), url("//at.alicdn.com/t/font_1442373896_4754455.svg#ifont") format("svg");
}

]]></style></defs><g class="transform-group"><g transform="scale(0.1953125, 0.1953125)"><path d="M963.615476 347.084253q23.341923 0 39.579783 14.71556t16.23786 36.027751l0 299.38554q0 20.297325-16.23786 35.012885t-39.579783 14.71556l-18.267592 0q-23.341923 0-39.579783-14.71556t-16.23786-35.012885l0-299.38554q0-21.312191 16.23786-36.027751t39.579783-14.71556l18.267592 0zM140.558957 347.084253q23.341923 0 38.564917 14.71556t15.222994 36.027751l0 299.38554q0 20.297325-15.222994 35.012885t-38.564917 14.71556l-18.267592 0q-23.341923 0-39.579783-14.71556t-16.23786-35.012885l0-299.38554q0-21.312191 16.23786-36.027751t39.579783-14.71556l18.267592 0zM700.76512 111.635286q18.267592 8.11893 38.057484 22.327057t38.057484 33.490586 31.968286 42.116949 19.789892 48.206146l-576.444023 0q16.23786-53.787911 51.250745-88.293363t70.533204-54.802777l-51.758178-81.189299q-2.029732-2.029732-0.507433-7.611497t10.656095-11.670962q8.11893-7.104064 15.222994-6.596631t9.133796 2.537166l52.773044 83.219031q28.416255-13.193261 59.877108-20.297325t64.951439-7.104064q69.010904 0 128.888012 28.416255l53.787911-84.233898q2.029732-2.029732 7.611497-2.029732t16.745293 6.089197q10.148662 5.074331 11.670962 9.133796t-0.507433 6.089197zM417.61744 198.913783q13.193261 0 22.327057-9.133796t9.133796-22.327057-9.133796-22.327057-22.327057-9.133796-22.327057 9.133796-9.133796 22.327057 9.133796 22.327057 22.327057 9.133796zM667.274534 194.854318q13.193261 0 22.327057-9.133796t9.133796-22.327057-9.133796-22.327057-22.327057-9.133796-22.327057 9.133796-9.133796 22.327057 9.133796 22.327057 22.327057 9.133796zM828.638266 321.712597l1.014866 456.689807q0 22.327057-14.71556 37.550051t-36.027751 15.222994l-14.208127 0 0 142.081273q0 20.297325-14.71556 35.520318t-36.027751 15.222994l-29.431121 0q-20.297325 0-35.012885-15.222994t-14.71556-35.520318l0-142.081273-186.735388 0 0 142.081273q0 20.297325-14.71556 35.520318t-36.027751 15.222994l-29.431121 0q-20.297325 0-35.012885-15.222994t-14.71556-35.520318l0-142.081273-11.163529 0q-21.312191 0-36.027751-15.222994t-14.71556-37.550051l0-456.689807 572.384558 0z" fill="#272636"></path></g></g></svg>