<?xml version="1.0" standalone="no"?><!DOCTYPE svg PUBLIC "-//W3C//DTD SVG 1.1//EN" "http://www.w3.org/Graphics/SVG/1.1/DTD/svg11.dtd"><svg xmlns:xlink="http://www.w3.org/1999/xlink" xmlns="http://www.w3.org/2000/svg" version="1.1" width="200" height="200" viewBox="0 0 200 200"><defs><style type="text/css"><![CDATA[
@font-face {
  font-family: "ifont";
  src: url("//at.alicdn.com/t/font_1442373896_4754455.eot?#iefix") format("embedded-opentype"), url("//at.alicdn.com/t/font_1442373896_4754455.woff") format("woff"), url("//at.alicdn.com/t/font_1442373896_4754455.ttf") format("truetype"), url("//at.alicdn.com/t/font_1442373896_4754455.svg#ifont") format("svg");
}

]]></style></defs><g class="transform-group"><g transform="scale(0.1953125, 0.1953125)"><path d="M832.032253 127.978498l-639.892491 0c-52.980346 0-95.983874 43.003528-95.983874 95.983874l0 511.913993c0 52.980346 43.003528 95.983874 95.983874 95.983874l210.717285 0 86.695112 86.695112c6.192508 6.192508 14.449185 9.460776 22.705863 9.460776s16.341341-3.096254 22.705863-9.460776l86.695112-86.695112 210.717285 0c52.980346 0 95.983874-43.003528 95.983874-95.983874L928.360155 223.962372C928.016126 170.982026 884.840585 127.978498 832.032253 127.978498zM335.943558 511.913993c-26.490173 0-47.991937-21.501764-47.991937-47.991937s21.501764-47.991937 47.991937-47.991937 47.991937 21.501764 47.991937 47.991937S362.433731 511.913993 335.943558 511.913993zM527.911305 511.913993c-26.490173 0-47.991937-21.501764-47.991937-47.991937s21.501764-47.991937 47.991937-47.991937 47.991937 21.501764 47.991937 47.991937S554.401478 511.913993 527.911305 511.913993zM720.051067 511.913993c-26.490173 0-47.991937-21.501764-47.991937-47.991937s21.501764-47.991937 47.991937-47.991937c26.490173 0 47.991937 21.501764 47.991937 47.991937S746.369226 511.913993 720.051067 511.913993z" fill="#272636"></path></g></g></svg>